<?xml version="1.0" encoding="UTF-8"?>
<svg width="88px" height="88px" viewBox="0 0 88 88" version="1.1" xmlns="http://www.w3.org/2000/svg" xmlns:xlink="http://www.w3.org/1999/xlink">
    <!-- Generator: Sketch 42 (36781) - http://www.bohemiancoding.com/sketch -->
    <title>fi-mail</title>
    <desc>Created with Sketch.</desc>
    <defs></defs>
    <g id="Hearthstone-driven-design-Based-on-Wrainbo" stroke="none" stroke-width="1" fill="none" fill-rule="evenodd">
        <g id="Media" transform="translate(-1077.000000, -191.000000)" fill-rule="nonzero" fill="#FFFFFF">
            <g id="media-icon" transform="translate(755.000000, 191.000000)">
                <g id="fi-mail" transform="translate(322.000000, 0.000000)">
                    <g id="Layer_1" transform="translate(5.000000, 14.000000)">
                        <g id="Group">
                            <path d="M74.944,0.189 L3.056,0.189 C1.646,0.189 0.5,1.336 0.5,2.746 L0.5,7.89 C0.5,8.127 0.757,8.399 0.967,8.509 L38.753,30.092 C38.851,30.149 38.961,30.175 39.071,30.175 C39.183,30.175 39.296,30.146 39.395,30.087 L76.039,8.53 C76.245,8.415 76.791,8.111 76.996,7.971 C77.244,7.802 77.5,7.649 77.5,7.346 L77.5,2.745 C77.5,1.336 76.354,0.189 74.944,0.189 Z" id="Shape"></path>
                            <path d="M77.181,15.646 C76.981,15.53 76.737,15.535 76.536,15.65 L55.799,27.851 C55.633,27.947 55.518,28.117 55.49,28.309 C55.465,28.5 55.525,28.695 55.654,28.836 L76.394,51.193 C76.517,51.326 76.685,51.397 76.861,51.397 C76.94,51.397 77.02,51.382 77.095,51.354 C77.34,51.257 77.5,51.022 77.5,50.758 L77.5,16.201 C77.5,15.971 77.379,15.76 77.181,15.646 Z" id="Shape"></path>
                            <path d="M49.823,31.948 C49.619,31.727 49.291,31.678 49.032,31.83 L40.72,36.721 C39.744,37.295 38.494,37.3 37.512,36.742 L30.197,32.563 C29.955,32.426 29.65,32.459 29.446,32.649 L1.668,58.415 C1.52,58.553 1.446,58.752 1.468,58.953 C1.49,59.154 1.607,59.334 1.782,59.435 C2.214,59.689 2.631,59.81 3.055,59.81 L74.208,59.81 C74.463,59.81 74.693,59.659 74.793,59.425 C74.895,59.193 74.849,58.922 74.675,58.736 L49.823,31.948 Z" id="Shape"></path>
                            <path d="M23.334,29.601 C23.484,29.464 23.559,29.262 23.537,29.061 C23.515,28.859 23.395,28.68 23.219,28.578 L1.453,16.146 C1.259,16.034 1.014,16.036 0.816,16.15 C0.62,16.264 0.5,16.475 0.5,16.702 L0.5,49.322 C0.5,49.575 0.65,49.805 0.882,49.906 C0.964,49.943 1.051,49.961 1.139,49.961 C1.296,49.961 1.453,49.902 1.573,49.79 L23.334,29.601 Z" id="Shape"></path>
                        </g>
                    </g>
                </g>
            </g>
        </g>
    </g>
</svg>