<?xml version="1.0" encoding="UTF-8"?>
<svg width="88px" height="88px" viewBox="0 0 88 88" version="1.1" xmlns="http://www.w3.org/2000/svg" xmlns:xlink="http://www.w3.org/1999/xlink">
    <!-- Generator: Sketch 42 (36781) - http://www.bohemiancoding.com/sketch -->
    <title>fi-social-twitter</title>
    <desc>Created with Sketch.</desc>
    <defs></defs>
    <g id="Hearthstone-driven-design-Based-on-Wrainbo" stroke="none" stroke-width="1" fill="none" fill-rule="evenodd">
        <g id="Media" transform="translate(-755.000000, -191.000000)" fill-rule="nonzero" fill="#FFFFFF">
            <g id="media-icon" transform="translate(755.000000, 191.000000)">
                <g id="fi-social-twitter">
                    <g id="Layer_1" transform="translate(5.000000, 13.000000)">
                        <path d="M77.003,7.408 C74.17,8.664 71.126,9.513 67.93,9.894 C71.191,7.939 73.697,4.843 74.875,1.156 C71.823,2.966 68.441,4.282 64.844,4.988 C61.963,1.92 57.857,0 53.313,0 C44.589,0 37.515,7.072 37.515,15.798 C37.515,17.035 37.655,18.242 37.925,19.399 C24.795,18.74 13.155,12.45 5.363,2.891 C4.003,5.225 3.224,7.94 3.224,10.834 C3.224,16.315 6.013,21.149 10.252,23.983 C7.663,23.9 5.227,23.189 3.097,22.007 C3.095,22.073 3.095,22.138 3.095,22.206 C3.095,29.858 8.54,36.243 15.766,37.696 C14.441,38.055 13.046,38.249 11.605,38.249 C10.586,38.249 9.597,38.151 8.632,37.966 C10.642,44.241 16.476,48.81 23.389,48.938 C17.982,53.174 11.171,55.701 3.769,55.701 C2.494,55.701 1.237,55.627 0,55.48 C6.991,59.962 15.295,62.576 24.216,62.576 C53.274,62.576 69.164,38.505 69.164,17.631 C69.164,16.947 69.148,16.264 69.118,15.585 C72.207,13.359 74.886,10.576 77.003,7.408 Z" id="Shape"></path>
                    </g>
                </g>
            </g>
        </g>
    </g>
</svg>