<?xml version="1.0" encoding="UTF-8"?>
<svg width="88px" height="88px" viewBox="0 0 88 88" version="1.1" xmlns="http://www.w3.org/2000/svg" xmlns:xlink="http://www.w3.org/1999/xlink">
    <!-- Generator: Sketch 42 (36781) - http://www.bohemiancoding.com/sketch -->
    <title>fi-social-facebook</title>
    <desc>Created with Sketch.</desc>
    <defs></defs>
    <g id="Hearthstone-driven-design-Based-on-Wrainbo" stroke="none" stroke-width="1" fill="none" fill-rule="evenodd">
        <g id="Media" transform="translate(-916.000000, -191.000000)" fill-rule="nonzero" fill="#FFFFFF">
            <g id="media-icon" transform="translate(755.000000, 191.000000)">
                <g id="fi-social-facebook" transform="translate(161.000000, 0.000000)">
                    <g id="Layer_1" transform="translate(8.000000, 8.000000)">
                        <g id="White_1_">
                            <path d="M68.026,0 L3.974,0 C1.779,0 0,1.779 0,3.974 L0,68.027 C0,70.221 1.779,72 3.974,72 L38.457,72 L38.457,44.118 L29.074,44.118 L29.074,33.252 L38.457,33.252 L38.457,25.238 C38.457,15.938 44.137,10.875 52.433,10.875 C56.407,10.875 59.822,11.17 60.818,11.303 L60.818,21.022 L55.064,21.025 C50.552,21.025 49.679,23.169 49.679,26.315 L49.679,33.253 L60.439,33.253 L59.038,44.119 L49.679,44.119 L49.679,72 L68.027,72 C70.221,72 72,70.221 72,68.026 L72,3.974 C72,1.779 70.221,0 68.026,0 Z" id="Shape"></path>
                        </g>
                    </g>
                </g>
            </g>
        </g>
    </g>
</svg>